<?xml version="1.0" encoding="iso-8859-1"?>
<!DOCTYPE svg PUBLIC "-//W3C//DTD SVG 1.1//EN" "http://www.w3.org/Graphics/SVG/1.1/DTD/svg11.dtd">
<svg version="1.1" id="Capa_1" xmlns="http://www.w3.org/2000/svg" xmlns:xlink="http://www.w3.org/1999/xlink" x="0px" y="0px"
	 width="35" height="35" viewBox="0 0 514.948 514.949" style="enable-background:new 0 0 514.948 514.949;"
	 xml:space="preserve">
<g>
	<path fill="#88ff88" d="M426.519,245.284c-18.905,2.717-52.612,5.081-106.102-7.163c-33.127-8.277-61.817-18.468-79.256-27.5
		c-1.203,1.086-2.55,1.989-3.988,2.723c1.405,1.351,2.379,3.154,2.604,5.223l29.691,270.71c0.111,0.994,0,1.984-0.229,2.937h40.341
		v22.735H157.987v-22.735h39.262c-0.22-0.914-0.331-1.854-0.242-2.807l25.542-270.711c0.139-1.48,0.672-2.824,1.45-3.983
		c-0.674-0.191-1.333-0.4-1.979-0.657C183.891,250.451,87.025,327.057,64.232,347.102c-29.065,25.554-6.323-44.198-6.323-44.198
		c11.45-15.295,33.61-40.799,80.091-69.959c27.747-16.653,53.87-29.255,72.46-35.586c-0.033-1.593,0.117-3.203,0.528-4.818
		c0.766-3.054,2.253-5.732,4.235-7.913c-32.486-40.684-98.583-145.413-116.6-170.117c-22.781-31.271,44.592-2.26,44.592-2.26
		c14.183,12.8,35.39,37.191,60.192,86.146c15.437,32.031,26.183,61.662,30.011,80.808c6.566,1.696,11.378,6.739,13.099,12.843
		c52.043,1.045,176.269,15.56,206.787,17.521C491.923,212.044,426.519,245.284,426.519,245.284z"/>
</g>
</svg>
